<?xml version="1.0" encoding="UTF-8"?>
<svg width="150px" height="50px" viewBox="0 0 150 50" version="1.1" xmlns="http://www.w3.org/2000/svg" xmlns:xlink="http://www.w3.org/1999/xlink">
    <!-- Generator: Sketch 52.5 (67469) - http://www.bohemiancoding.com/sketch -->
    <title>logo/white</title>
    <desc>Created with Sketch.</desc>
    <g id="Page-2" stroke="none" stroke-width="1" fill="none" fill-rule="evenodd">
        <g id="home" transform="translate(-115.000000, -5853.000000)">
            <g id="Group-41" transform="translate(0.000000, 5773.000000)">
                <g id="logo/white" transform="translate(115.000000, 79.000000)">
                    <g id="Group-46">
                        <path d="M144.302667,25.5681944 C145.003129,25.5754861 145.487079,26.0515278 145.479804,26.7227083 C145.472875,27.3952778 144.976109,27.8556944 144.275647,27.8480556 C143.479573,27.8372917 143.131074,27.2595139 143.138349,26.6928472 C143.147356,26.1254861 143.508326,25.5563889 144.302667,25.5681944 Z M145.653152,24.2942361 C146.010658,23.9369444 146.212968,23.4619444 146.220242,22.9615972 C146.234792,21.845625 145.472667,21.0588194 144.367933,21.0442361 C143.278788,21.0306944 142.480982,21.8168056 142.46851,22.9133333 C142.461236,23.4227083 142.650727,23.9015278 142.999226,24.2626389 L143.147494,24.4109028 L143.663661,23.905 L143.517471,23.7567361 C143.302691,23.5341667 143.181443,23.2303472 143.186986,22.9227083 C143.192182,22.3869444 143.502921,21.7661111 144.357194,21.7779167 C145.21112,21.7886806 145.506963,22.4168056 145.501767,22.9525694 C145.496224,23.2727083 145.371859,23.5751389 145.162275,23.783125 L145.014007,23.926875 L145.503152,24.4445833 L145.653152,24.2942361 Z M144.266432,28.5796528 C145.371859,28.5938889 146.185947,27.8157639 146.198418,26.7310417 C146.212968,25.6452778 145.420358,24.8480556 144.313545,24.8334722 C143.223014,24.8199306 142.421397,25.5990972 142.407194,26.683125 C142.392644,27.7688889 143.176247,28.5688889 144.266432,28.5796528 Z M146.124284,33.2879861 C146.129827,32.7977083 145.920242,32.3543056 145.564815,32.0758333 C145.931328,31.8188889 146.148187,31.3883333 146.155115,30.8595139 C146.158926,30.5265278 146.06851,30.2279167 145.894954,29.9872917 L146.099342,29.9872917 L146.108002,29.270625 L142.421397,29.2254861 L142.412737,29.9657639 L144.560889,29.9911111 C145.086409,30.0001389 145.434908,30.3404167 145.429365,30.8449306 C145.42209,31.3428472 145.057309,31.6883333 144.541143,31.6810417 L142.392644,31.6539583 L142.381905,32.3959722 L144.530404,32.4213194 C145.052113,32.426875 145.411351,32.7813889 145.405808,33.2810417 C145.400612,33.7838194 145.04657,34.1168056 144.530404,34.11125 L142.361813,34.0841667 L142.351074,34.8265278 L144.519665,34.8515278 C145.438372,34.864375 146.113545,34.2074306 146.124284,33.2879861 Z M144.338834,15.7129861 C143.526132,15.7129861 142.86724,16.3727083 142.86724,17.1859028 C142.86724,18.0011806 143.526132,18.6609028 144.338834,18.6609028 C145.151536,18.6609028 145.808349,18.0011806 145.808349,17.1859028 C145.808349,16.3727083 145.151536,15.7129861 144.338834,15.7129861 Z M144.18537,10.6279167 L149.656039,16.0279167 L149.656039,38.205 L139.020242,38.205 L139.020242,16.0279167 L144.18537,10.6279167 Z" id="Combined-Shape" fill="#E88139"></path>
                        <g id="Group-8" transform="translate(0.000000, 0.325000)" fill="#E88139">
                            <g id="Group" transform="translate(0.000000, 0.000000)">
                                <path d="M10.2955081,34.2842014 C7.27333718,34.2842014 4.04504619,32.5921875 4.04504619,27.8366319 C4.04504619,23.0543403 7.27333718,21.3508681 10.2955081,21.3508681 C13.9769169,21.3508681 16.5470092,24.0029514 16.5470092,27.7984375 C16.5470092,31.6185764 13.9769169,34.2842014 10.2955081,34.2842014 Z M16.5840762,19.4668403 C14.9309584,18.0862847 12.7367321,17.3335069 10.2224134,17.3335069 C4.20405312,17.3335069 -0.000103926097,21.6529514 -0.000103926097,27.8366319 C-0.000103926097,34.1178819 4.09285219,38.3397569 10.1874249,38.3397569 C12.5992032,38.3397569 14.858903,37.5088542 16.5840762,36.0647569 L16.5840762,38.0484375 L20.6292263,38.0484375 L20.6292263,10.0675347 L16.5840762,10.0675347 L16.5840762,19.4668403 Z" id="Fill-6"></path>
                                <polygon id="Fill-9" points="25.3306005 38.0461806 29.4124711 38.0461806 29.4124711 17.5524306 25.3306005 17.5524306"></polygon>
                                <path d="M27.4086374,10.2875347 C25.9308083,10.2875347 24.8177598,11.3958681 24.8177598,12.8653125 C24.8177598,14.3347569 25.9308083,15.4430903 27.4086374,15.4430903 C28.8854273,15.4430903 29.9984758,14.3347569 29.9984758,12.8653125 C29.9984758,11.3958681 28.8854273,10.2875347 27.4086374,10.2875347" id="Fill-11"></path>
                                <path d="M43.4067436,17.2953819 C41.3694457,17.3252431 39.5538568,17.9224653 38.124873,18.9891319 L38.124873,17.6273264 L34.0797229,17.6273264 L34.0797229,38.0464236 L38.16194,38.0464236 L38.16194,26.8092708 C38.16194,23.6252431 40.2993533,21.3814931 43.3606697,21.3498958 L43.4455427,21.3498958 C46.80097,21.3498958 48.6498152,23.1721181 48.6498152,26.4790625 L48.6498152,38.0464236 L52.7320323,38.0464236 L52.7320323,26.4422569 C52.7320323,20.8867014 49.0776443,17.2953819 43.4067436,17.2953819" id="Fill-12"></path>
                                <polygon id="Fill-40" points="47.1872633 7.83274306 23.2011201 0.674756944 27.8597806 0.674756944"></polygon>
                                <polygon id="Fill-43" points="61.1092032 7.83274306 85.0946536 0.674756944 80.4366859 0.674756944"></polygon>
                                <polygon id="Fill-44" points="49.5831062 10.8185417 44.890843 2.989375 53.8946536 7.77583333"></polygon>
                                <polygon id="Fill-45" points="58.6925404 10.8185417 63.3841109 2.989375 54.3813395 7.77583333"></polygon>
                            </g>
                        </g>
                        <path d="M67.5294804,17.7651736 L67.3441455,17.7669097 C65.4325982,17.7669097 63.7316744,18.3005903 62.4156236,19.2662153 L62.3858314,17.9523264 L58.4390647,17.9523264 L58.4390647,38.3714236 L62.5209353,38.3714236 L62.5209353,26.6564931 C62.5209353,23.9342708 64.6451848,21.7769792 67.3441455,21.7498958 C68.263545,21.7498958 69.0949538,21.9752431 69.8196651,22.4221181 L70.8443764,23.0537153 L72.7562702,19.5682986 L71.818164,18.9992014 C70.472321,18.1804514 69.0287875,17.7651736 67.5294804,17.7651736" id="Fill-13" fill="#CB356B"></path>
                        <path d="M83.9643187,34.6092014 C80.3428406,34.6092014 77.7138568,31.8980903 77.7138568,28.1616319 C77.7138568,24.4460069 80.3428406,21.7480903 83.9643187,21.7480903 C88.3662818,21.7480903 90.3703233,25.0824653 90.3703233,28.1779514 C90.3703233,29.8824653 89.8032333,31.4640625 88.7705543,32.6276042 C87.6225173,33.9251736 85.9614319,34.6092014 83.9643187,34.6092014 Z M90.2147806,19.9005208 C88.5377598,18.5223958 86.3369515,17.7307292 83.9643187,17.7307292 C78.0751732,17.7307292 73.6309469,22.2151042 73.6309469,28.1616319 C73.6309469,34.1498264 78.0751732,38.6647569 83.9643187,38.6647569 C86.3566975,38.6647569 88.5,37.8918403 90.2147806,36.4477431 L90.2147806,38.3734375 L94.2969977,38.3734375 L94.2969977,17.9515625 L90.2147806,17.9515625 L90.2147806,19.9005208 Z" id="Fill-14" fill="#CB356B"></path>
                        <path d="M108.836536,34.0626042 C108.006166,34.4626042 107.191732,34.6834375 106.550508,34.6834375 C104.936536,34.6834375 104.362517,34.2237153 104.362517,31.6487153 L104.362517,21.7490625 L110.511824,21.7490625 L110.511824,17.9525347 L104.362517,17.9525347 L104.362517,12.3577431 L100.318406,12.7806597 L100.318406,17.9525347 L96.4727945,17.9525347 L96.4727945,21.7490625 L100.318406,21.7490625 L100.318406,31.6487153 C100.318406,36.2778819 102.414596,38.6282292 106.550508,38.6282292 C107.746005,38.6282292 109.020485,38.2921181 110.45224,37.5969792 L111.434342,37.1209375 L109.915982,33.5452431 L108.836536,34.0626042 Z" id="Fill-15" fill="#CB356B"></path>
                        <path d="M123.279977,17.7651736 L123.096028,17.7669097 C121.182055,17.7669097 119.481132,18.3005903 118.167159,19.2662153 L118.136328,17.9523264 L114.19164,17.9523264 L114.19164,38.3714236 L118.271778,38.3714236 L118.271778,26.6564931 C118.271778,23.9342708 120.394988,21.7769792 123.096028,21.7498958 C124.01127,21.7498958 124.847182,21.9752431 125.569122,22.4221181 L126.594873,23.0537153 L128.505035,19.5682986 L127.570046,18.9992014 C126.222818,18.1804514 124.780323,17.7651736 123.279977,17.7651736" id="Fill-16" fill="#CB356B"></path>
                        <path d="M132.448268,10.6125347 C130.9694,10.6125347 129.855658,11.7208681 129.855658,13.1903125 C129.855658,14.6597569 130.9694,15.7680903 132.448268,15.7680903 C133.925058,15.7680903 135.037413,14.6597569 135.037413,13.1903125 C135.037413,11.7208681 133.925058,10.6125347 132.448268,10.6125347" id="Fill-17" fill="#CB356B"></path>
                        <polygon id="Fill-18" fill="#CB356B" points="130.371824 38.3711806 134.452309 38.3711806 134.452309 17.8774306 130.371824 17.8774306"></polygon>
                        <g id="Group-2" transform="translate(48.000000, 40.000000)" fill="#E88139">
                            <path d="M4.21475751,5.75996528 C3.11764434,5.73670139 1.87399538,5.92663194 1.87399538,6.96725694 C1.87399538,7.60267361 2.30806005,7.89885417 2.82249423,7.89885417 C3.5413164,7.89885417 3.99789838,7.45753472 4.15690531,7.00163194 C4.19224018,6.90024306 4.21475751,6.7915625 4.21475751,6.69052083 L4.21475751,5.75996528 Z M4.36267898,8.49815972 L4.28334873,7.8228125 L4.25009238,7.8228125 C3.94108545,8.24260417 3.34732102,8.61934028 2.55817552,8.61934028 C1.4395843,8.61934028 0.868337182,7.85545139 0.868337182,7.07767361 C0.868337182,5.78149306 2.05690531,5.07246528 4.19224018,5.0853125 L4.19224018,4.97454861 C4.19224018,4.52975694 4.06648961,3.72940972 2.93715935,3.72940972 C2.42272517,3.72940972 1.88473441,3.88357639 1.49639723,4.12802083 L1.2691455,3.4853125 C1.72572748,3.1978125 2.38773672,3.00927083 3.08438799,3.00927083 C4.77422633,3.00927083 5.18508083,4.12802083 5.18508083,5.20649306 L5.18508083,7.21482639 C5.18508083,7.67836806 5.20933025,8.13427083 5.27722864,8.49815972 L4.36267898,8.49815972 Z" id="Fill-19"></path>
                            <path d="M6.80916859,4.58402778 C6.80916859,4.02986111 6.79842956,3.57777778 6.76482679,3.13263889 L7.65408776,3.13263889 L7.71159353,4.01736111 L7.73341801,4.01736111 C8.00709007,3.50902778 8.64727483,3.009375 9.5604388,3.009375 C10.3260277,3.009375 11.5121709,3.45277778 11.5121709,5.29340278 L11.5121709,8.49791667 L10.5085912,8.49791667 L10.5085912,5.40347222 C10.5085912,4.540625 10.1781062,3.82048611 9.22926097,3.82048611 C8.56759815,3.82048611 8.05385681,4.27291667 7.88168591,4.81909722 C7.83734411,4.94027778 7.81448037,5.10486111 7.81448037,5.27152778 L7.81448037,8.49791667 L6.80916859,8.49791667 L6.80916859,4.58402778 Z" id="Fill-20"></path>
                            <path d="M13.3674942,3.13274306 L14.5761547,6.30322917 C14.7019053,6.65774306 14.8387413,7.08100694 14.9308891,7.40322917 L14.9551386,7.40322917 C15.0545612,7.08100694 15.1692263,6.66885417 15.3084873,6.28135417 L16.4042148,3.13274306 L17.4639145,3.13274306 L15.9590647,6.9584375 C15.2378176,8.79663194 14.7504042,9.74142361 14.0644919,10.3202431 C13.5722286,10.7403819 13.0803118,10.9067014 12.8295035,10.9501042 L12.579388,10.1303125 C12.8295035,10.0528819 13.1617206,9.89663194 13.4575635,9.65079861 C13.7312356,9.44107639 14.0752309,9.0646875 14.3024827,8.56503472 C14.3485566,8.46711806 14.3838915,8.38795139 14.3838915,8.33378472 C14.3838915,8.2771875 14.3592956,8.19940972 14.3153002,8.07649306 L12.2707275,3.13274306 L13.3674942,3.13274306 Z" id="Fill-21"></path>
                            <path d="M19.5935681,1.59059028 L19.5935681,3.13260417 L21.0315589,3.13260417 L21.0315589,3.87461806 L19.5935681,3.87461806 L19.5935681,6.76975694 C19.5935681,7.43572917 19.7875635,7.81211806 20.3453002,7.81211806 C20.6082333,7.81211806 20.8022286,7.77947917 20.9286721,7.74545139 L20.974746,8.47809028 C20.7807506,8.55413194 20.4717436,8.61211806 20.0837529,8.61211806 C19.6133141,8.61211806 19.2388337,8.46732639 18.9956467,8.19927083 C18.7133141,7.91177083 18.609388,7.43572917 18.609388,6.80239583 L18.609388,3.87461806 L17.7537298,3.87461806 L17.7537298,3.13260417 L18.609388,3.13260417 L18.609388,1.8440625 L19.5935681,1.59059028 Z" id="Fill-22"></path>
                            <path d="M22.1636605,0.624201389 L23.1672402,0.624201389 L23.1672402,3.97246528 L23.1890647,3.97246528 C23.350843,3.69711806 23.6016513,3.45440972 23.9103118,3.28809028 C24.2065012,3.12177083 24.5595035,3.00927083 24.9384873,3.00927083 C25.6794804,3.00927083 26.8649307,3.45440972 26.8649307,5.30440972 L26.8649307,8.49815972 L25.8630831,8.49815972 L25.8630831,5.41447917 C25.8630831,4.55163194 25.5319053,3.82038194 24.5837529,3.82038194 C23.931097,3.82038194 23.4183949,4.26204861 23.2361778,4.79399306 C23.1783256,4.92802083 23.1672402,5.07246528 23.1672402,5.26100694 L23.1672402,8.49815972 L22.1636605,8.49815972 L22.1636605,0.624201389 Z" id="Fill-23"></path>
                            <path d="M28.5027714,8.49618056 L29.506351,8.49618056 L29.506351,3.13055556 L28.5027714,3.13055556 L28.5027714,8.49618056 Z M29.6237875,1.62326389 C29.6327945,1.95625 29.3816397,2.22222222 28.9839492,2.22222222 C28.6288684,2.22222222 28.3770208,1.95625 28.3770208,1.62326389 C28.3770208,1.27777778 28.6396074,1.01180556 29.0033487,1.01180556 C29.3816397,1.01180556 29.6237875,1.27777778 29.6237875,1.62326389 Z" id="Fill-24"></path>
                            <path d="M31.1763395,4.58402778 C31.1763395,4.02986111 31.1656005,3.57777778 31.1313048,3.13263889 L32.0212587,3.13263889 L32.0773788,4.01736111 L32.1009353,4.01736111 C32.3753002,3.50902778 33.0144457,3.009375 33.9258776,3.009375 C34.693545,3.009375 35.8814203,3.45277778 35.8814203,5.29340278 L35.8814203,8.49791667 L34.8778406,8.49791667 L34.8778406,5.40347222 C34.8778406,4.540625 34.543545,3.82048611 33.5974711,3.82048611 C32.933037,3.82048611 32.4186028,4.27291667 32.2488568,4.81909722 C32.2017436,4.94027778 32.1799192,5.10486111 32.1799192,5.27152778 L32.1799192,8.49791667 L31.1763395,8.49791667 L31.1763395,4.58402778 Z" id="Fill-25"></path>
                            <path d="M41.2400924,5.25 C41.2400924,5.08506944 41.2272748,4.94027778 41.1801617,4.80833333 C41.0000231,4.24027778 40.507067,3.775 39.7775058,3.775 C38.8172286,3.775 38.13097,4.5625 38.13097,5.80347222 C38.13097,6.85868056 38.6796998,7.73611111 39.7667667,7.73611111 C40.3840878,7.73611111 40.9404388,7.35625 41.1586836,6.73715278 C41.2148037,6.57118056 41.2400924,6.38090278 41.2400924,6.2125 L41.2400924,5.25 Z M42.2800462,3.13263889 C42.2547575,3.52152778 42.2312009,3.95069444 42.2312009,4.60590278 L42.2312009,7.721875 C42.2312009,8.95416667 41.9803926,9.70902778 41.4420554,10.1756944 C40.9078753,10.6642361 40.1315473,10.8163194 39.4345497,10.8163194 C38.7718476,10.8163194 38.0409007,10.6642361 37.5964434,10.375 L37.8475982,9.62916667 C38.2141109,9.85173611 38.7808545,10.0527778 39.4671132,10.0527778 C40.4963279,10.0527778 41.2508314,9.53125 41.2508314,8.17604167 L41.2508314,7.58055556 L41.2272748,7.58055556 C40.9186143,8.07847222 40.3245035,8.47638889 39.4671132,8.47638889 C38.100485,8.47638889 37.1166513,7.34548611 37.1166513,5.85972222 C37.1166513,4.04097222 38.3367436,3.009375 39.6042956,3.009375 C40.5649192,3.009375 41.0883603,3.49826389 41.3284296,3.94305556 L41.3519861,3.94305556 L41.3970208,3.13263889 L42.2800462,3.13263889 Z" id="Fill-26"></path>
                            <path d="M49.8268822,5.29340278 C49.8393533,4.67430556 49.5667206,3.70972222 48.436351,3.70972222 C47.4220323,3.70972222 46.9741109,4.61666667 46.89097,5.29340278 L49.8268822,5.29340278 Z M46.8840416,5.99201389 C46.9055196,7.31284722 47.7719169,7.85555556 48.7779215,7.85555556 C49.4984758,7.85555556 49.9315012,7.734375 50.3090993,7.57881944 L50.4784988,8.27743056 C50.1261894,8.43298611 49.5199538,8.61215278 48.6403926,8.61215278 C46.9398152,8.61215278 45.9251501,7.52256944 45.9251501,5.903125 C45.9251501,4.28368056 46.9055196,3.009375 48.5160277,3.009375 C50.3198383,3.009375 50.7999769,4.55138889 50.7999769,5.53958333 C50.7999769,5.73645833 50.7764203,5.89409722 50.7656813,5.99201389 L46.8840416,5.99201389 Z" id="Fill-27"></path>
                            <path d="M52.4354965,3.13274306 L53.5208314,6.14732639 C53.7013164,6.63621528 53.8492379,7.08100694 53.9666744,7.52267361 L54.0013164,7.52267361 C54.1256813,7.08100694 54.2843418,6.63621528 54.4665589,6.14732639 L55.5390762,3.13274306 L56.5897691,3.13274306 L54.4232564,8.49802083 L53.4629792,8.49802083 L51.3612471,3.13274306 L52.4354965,3.13274306 Z" id="Fill-28"></path>
                            <path d="M60.9322864,5.29340278 C60.9430254,4.67430556 60.6703926,3.70972222 59.5400231,3.70972222 C58.5218938,3.70972222 58.0777829,4.61666667 57.9981062,5.29340278 L60.9322864,5.29340278 Z M57.9835566,5.99201389 C58.0091917,7.31284722 58.8755889,7.85555556 59.8833256,7.85555556 C60.6018014,7.85555556 61.0351732,7.734375 61.4124249,7.57881944 L61.583903,8.27743056 C61.2298614,8.43298611 60.6250115,8.61215278 59.7457968,8.61215278 C58.0452194,8.61215278 57.0270901,7.52256944 57.0270901,5.903125 C57.0270901,4.28368056 58.0091917,3.009375 59.6196998,3.009375 C61.4248961,3.009375 61.9053811,4.55138889 61.9053811,5.53958333 C61.9053811,5.73645833 61.879746,5.89409722 61.8672748,5.99201389 L57.9835566,5.99201389 Z" id="Fill-29"></path>
                            <path d="M63.1508661,4.80645833 C63.1508661,4.173125 63.140127,3.63180556 63.1040993,3.13284722 L63.9833141,3.13284722 L64.0176097,4.18597222 L64.0647229,4.18597222 C64.3137991,3.46201389 64.9200346,3.00923611 65.5920901,3.00923611 C65.7077945,3.00923611 65.7867783,3.02 65.8810046,3.041875 L65.8810046,3.96131944 C65.7760393,3.94152778 65.6714203,3.92902778 65.53597,3.92902778 C64.8303118,3.92902778 64.3266166,4.45020833 64.1908199,5.18284722 C64.1658776,5.31513889 64.1440531,5.47034722 64.1440531,5.63875 L64.1440531,8.498125 L63.1508661,8.498125 L63.1508661,4.80645833 Z" id="Fill-30"></path>
                            <path d="M67.5382794,3.13274306 L68.7459007,6.30322917 C68.8726905,6.65774306 69.0116051,7.08100694 69.0982102,7.40322917 L69.1252309,7.40322917 C69.2281178,7.08100694 69.3417436,6.66885417 69.4775404,6.28135417 L70.5732679,3.13274306 L71.6367783,3.13274306 L70.129157,6.9584375 C69.4086028,8.79663194 68.9173788,9.74142361 68.2314665,10.3202431 C67.742321,10.7403819 67.2493649,10.9067014 66.9999423,10.9501042 L66.7494804,10.1303125 C66.9999423,10.0528819 67.3321594,9.89663194 67.6286952,9.65079861 C67.90306,9.44107639 68.2460162,9.0646875 68.4736143,8.56503472 C68.518649,8.46711806 68.5529446,8.38795139 68.5529446,8.33378472 C68.5529446,8.2771875 68.5311201,8.19940972 68.4843533,8.07649306 L66.4404734,3.13274306 L67.5382794,3.13274306 Z" id="Fill-31"></path>
                            <path d="M73.0881062,3.13274306 L73.8211316,5.85809028 C73.9801386,6.4584375 74.12806,7.01260417 74.2309469,7.56642361 L74.2652425,7.56642361 C74.3899538,7.02336806 74.5721709,6.44767361 74.7564665,5.87059028 L75.6592379,3.13274306 L76.504157,3.13274306 L77.3598152,5.81434028 C77.5638568,6.4584375 77.7245958,7.02336806 77.8493072,7.56642361 L77.8836028,7.56642361 C77.9771363,7.02336806 78.1254042,6.4584375 78.3062356,5.82510417 L79.0933025,3.13274306 L80.0896074,3.13274306 L78.3062356,8.49802083 L77.3923788,8.49802083 L76.5491917,5.93760417 C76.3524249,5.33864583 76.1937644,4.80635417 76.0562356,4.17302083 L76.0347575,4.17302083 C75.8972286,4.81746528 75.7240185,5.37267361 75.5345266,5.94836806 L74.6407621,8.49802083 L73.7275982,8.49802083 L72.0627021,3.13274306 L73.0881062,3.13274306 Z" id="Fill-32"></path>
                            <path d="M81.097067,0.624201389 L82.1009931,0.624201389 L82.1009931,3.97246528 L82.1262818,3.97246528 C82.2852887,3.69711806 82.536097,3.45440972 82.8447575,3.28809028 C83.1409469,3.12177083 83.4949885,3.00927083 83.8705081,3.00927083 C84.6142725,3.00927083 85.8021478,3.45440972 85.8021478,5.30440972 L85.8021478,8.49815972 L84.7985681,8.49815972 L84.7985681,5.41447917 C84.7985681,4.55163194 84.466351,3.82038194 83.5181986,3.82038194 C82.866582,3.82038194 82.3538799,4.26204861 82.1730485,4.79399306 C82.1151963,4.92802083 82.1009931,5.07246528 82.1009931,5.26100694 L82.1009931,8.49815972 L81.097067,8.49815972 L81.097067,0.624201389 Z" id="Fill-33"></path>
                            <path d="M90.9422979,5.29340278 C90.9551155,4.67430556 90.6804042,3.70972222 89.5503811,3.70972222 C88.5357159,3.70972222 88.089873,4.61666667 88.0084642,5.29340278 L90.9422979,5.29340278 Z M87.9977252,5.99201389 C88.0192032,7.31284722 88.8894111,7.85555556 89.8936836,7.85555556 C90.6138915,7.85555556 91.0451848,7.734375 91.4207044,7.57881944 L91.594261,8.27743056 C91.2419515,8.43298611 90.6336374,8.61215278 89.7561547,8.61215278 C88.0555774,8.61215278 87.037448,7.52256944 87.037448,5.903125 C87.037448,4.28368056 88.0192032,3.009375 89.6297113,3.009375 C91.435254,3.009375 91.9140069,4.55138889 91.9140069,5.53958333 C91.9140069,5.73645833 91.8901039,5.89409722 91.8793649,5.99201389 L87.9977252,5.99201389 Z" id="Fill-34"></path>
                            <path d="M93.1595266,4.80645833 C93.1595266,4.173125 93.146709,3.63180556 93.1124134,3.13284722 L93.9954388,3.13284722 L94.0280023,4.18597222 L94.0751155,4.18597222 C94.3259238,3.46201389 94.9304273,3.00923611 95.6059469,3.00923611 C95.7199192,3.00923611 95.7971709,3.02 95.8910508,3.041875 L95.8910508,3.96131944 C95.788164,3.94152778 95.6852771,3.92902778 95.5480947,3.92902778 C94.8368938,3.92902778 94.3366628,4.45020833 94.1974018,5.18284722 C94.1759238,5.31513889 94.1561778,5.47034722 94.1561778,5.63875 L94.1561778,8.498125 L93.1595266,8.498125 L93.1595266,4.80645833 Z" id="Fill-35"></path>
                            <path d="M100.287506,5.29340278 C100.298245,4.67430556 100.025612,3.70972222 98.8952425,3.70972222 C97.8771132,3.70972222 97.4330023,4.61666667 97.3533256,5.29340278 L100.287506,5.29340278 Z M97.3425866,5.99201389 C97.3644111,7.31284722 98.2308083,7.85555556 99.2368129,7.85555556 C99.9570208,7.85555556 100.388314,7.734375 100.765912,7.57881944 L100.939122,8.27743056 C100.585081,8.43298611 99.9784988,8.61215278 99.1013626,8.61215278 C97.4004388,8.61215278 96.3823095,7.52256944 96.3823095,5.903125 C96.3823095,4.28368056 97.3644111,3.009375 98.9749192,3.009375 C100.778383,3.009375 101.257136,4.55138889 101.257136,5.53958333 C101.257136,5.73645833 101.233233,5.89409722 101.222494,5.99201389 L97.3425866,5.99201389 Z" id="Fill-36"></path>
                        </g>
                        <polygon id="Fill-37" fill="#CB356B" points="54.1609815 18.8580556 58.4153695 11.6257639 54.1374249 8.49 49.8629446 11.6386111"></polygon>
                        <polygon id="Fill-38" fill="#CB356B" points="44.0728406 3.28628472 37.7184527 1.68836806 46.9273441 7.83003472"></polygon>
                        <polygon id="Fill-39" fill="#CB356B" points="47.0465127 8.00395833 31.3744573 1.69284722 36.582194 1.69284722"></polygon>
                        <polygon id="Fill-41" fill="#CB356B" points="64.2237644 3.28628472 70.577806 1.68836806 61.3682217 7.83003472"></polygon>
                        <polygon id="Fill-42" fill="#CB356B" points="61.2500924 8.00395833 76.9221478 1.69284722 71.7137182 1.69284722"></polygon>
                    </g>
                </g>
            </g>
        </g>
    </g>
</svg>