<?xml version="1.0" encoding="UTF-8"?>
<svg width="13px" height="20px" viewBox="0 0 13 20" version="1.1" xmlns="http://www.w3.org/2000/svg" xmlns:xlink="http://www.w3.org/1999/xlink">
    <!-- Generator: Sketch 52.5 (67469) - http://www.bohemiancoding.com/sketch -->
    <title>icon/phone</title>
    <desc>Created with Sketch.</desc>
    <g id="Page-2" stroke="none" stroke-width="1" fill="none" fill-rule="evenodd">
        <g id="home" transform="translate(-1159.000000, -108.000000)">
            <g id="header">
                <g id="phone-number" transform="translate(1159.000000, 108.000000)">
                    <g id="icon/phone">
                        <g id="Phone">
                            <path d="M12.3254857,15.7734615 L8.89534286,11.72 C8.51314286,11.2669231 7.92182857,11.0711538 7.35762857,11.2138462 L7.07831429,11.2823077 C6.77597143,11.3569231 6.46508571,11.1946154 6.34251429,10.8984615 C6.11817143,10.3561538 5.9566,9.77961538 5.85631429,9.16384615 C5.81471429,8.90884615 5.97702857,8.65846154 6.21994286,8.59730769 C6.70614286,8.47461538 7.08574286,8.11923077 7.27182857,7.67038462 C7.36802857,7.43769231 7.41148571,7.17769231 7.39291429,6.91 L7.04005714,2.17807692 C6.94608571,0.928461538 5.75268571,0.0953846154 4.59977143,0.476153846 L2.09708571,1.475 C1.1206,1.79615385 0.432714286,2.68653846 0.323142857,3.73961538 C-0.218028571,8.92576923 1.55628571,14.7546154 5.34671429,18.6434615 C5.75937143,19.0673077 6.45691429,18.9276923 6.70651429,18.3838462 C6.71357143,18.3692308 6.72025714,18.3546154 6.72694286,18.34 C6.88405714,17.9969231 6.80457143,17.5961538 6.54494286,17.3280769 C3.23588571,13.9180769 1.67885714,8.84307692 2.02391429,4.31038462 C2.067,3.73923077 2.44957143,3.25615385 2.97774286,3.08153846 L4.68185714,2.34961538 C4.99051429,2.24692308 5.3092,2.46730769 5.33631429,2.80576923 L5.60151429,6.36576923 C5.62602857,6.66384615 5.43325714,6.93615385 5.15394286,7.005 L4.57265714,7.15192308 C4.12248571,7.26653846 3.82905714,7.71846154 3.89814286,8.19346154 C4.20457143,10.2146154 4.62577143,11.6096154 5.70811429,13.2903846 C5.941,13.6523077 6.3908,13.7938462 6.7808,13.6323077 L7.56488571,13.3080769 C7.79888571,13.2115385 8.07002857,13.2807692 8.23308571,13.4830769 L10.7149714,16.525 C10.9415429,16.8030769 10.8342,17.2273077 10.5017714,17.3511538 C10.5017714,17.3511538 9.75705714,17.625 9.11114286,17.8592308 C8.61788571,18.0380769 8.38425714,18.6203846 8.60934286,19.1092308 C8.80397143,19.5311538 9.27605714,19.7319231 9.70097143,19.5726923 L11.5514286,18.8796154 C12.7953429,18.4173077 13.1987143,16.8026923 12.3254857,15.7734615" id="Fill-80" fill="#CB356B"/>
                            <path d="M8.593,1.66961538 C8.62308571,2.07230769 8.89162857,2.41653846 9.26862857,2.51923077 C10.0118571,2.72192308 10.5849714,3.39307692 10.6473714,4.23076923 C10.7101429,5.06846154 10.244,5.82307692 9.54014286,6.14192308 C9.18282857,6.30384615 8.96888571,6.68692308 8.99897143,7.08923077 C9.04911429,7.75961538 9.72808571,8.16384615 10.3201429,7.88769231 C11.7078,7.24076923 12.6233714,5.74307692 12.4989429,4.08192308 C12.3745143,2.42076923 11.2472286,1.08769231 9.77971429,0.67 C9.15348571,0.491538462 8.54285714,0.999615385 8.593,1.66961538" id="Fill-81" fill="#E88139"/>
                        </g>
                    </g>
                </g>
            </g>
        </g>
    </g>
</svg>